<svg width="215" height="181" viewBox="0 0 215 181" fill="none" xmlns="http://www.w3.org/2000/svg">
<g filter="url(#filter0_d_98_2992)">
<path d="M52.9663 60.5417H21.5655C16.8349 60.5417 13 64.3766 13 69.1072V69.1072C13 73.8378 16.8349 77.6726 21.5655 77.6726H46.3758C50.4538 77.6726 53.7598 80.9786 53.7598 85.0567V85.0567C53.7598 89.1347 50.4538 92.4407 46.3758 92.4407H13.7935" stroke="white" stroke-width="5.90721" stroke-linecap="round"/>
<path d="M149.518 95.3855L149.518 71.0998C149.518 64.6162 144.262 59.3603 137.779 59.3603V59.3603C131.295 59.3603 126.039 64.6162 126.039 71.0998L126.039 86.8288C126.039 90.9069 122.733 94.2128 118.655 94.2128V94.2128C114.577 94.2128 111.271 90.9069 111.271 86.8288L111.271 58.9811" stroke="white" stroke-width="5.90721" stroke-linecap="round"/>
<path d="M202 60.2464L178.574 60.2464C169.439 60.2464 162.034 67.6517 162.034 76.7866V77.3773V77.3773C162.034 85.5335 168.646 92.1453 176.802 92.1453H202" stroke="white" stroke-width="5.90721" stroke-linecap="round"/>
<path d="M65.5743 58.7078L65.5743 77.0075C65.5743 85.7001 72.3028 92.9094 80.9747 93.5084L81.5203 93.5461C82.2524 93.5967 82.9872 93.5926 83.7188 93.534V93.534C91.397 92.9188 97.3145 86.5081 97.3145 78.8052L97.3145 58.311" stroke="white" stroke-width="5.90721" stroke-linecap="round"/>
<path d="M64.9747 110.956L80.9682 110.956C90.1031 110.956 97.5084 103.551 97.5084 94.4156L97.5084 76.835" stroke="white" stroke-width="5.90721" stroke-linecap="round"/>
</g>
<path fill-rule="evenodd" clip-rule="evenodd" d="M63.3769 24.0388C60.9443 24.0388 58.5321 23.177 56.4698 21.5236L56.1063 21.2314L59.8264 17.0311C59.9046 16.9428 60.0147 16.8891 60.1324 16.882C60.2502 16.8749 60.3659 16.9148 60.4542 16.993C60.5426 17.0712 60.5962 17.1813 60.6033 17.299C60.6105 17.4168 60.5705 17.5325 60.4923 17.6208L57.3972 21.1147C59.9964 23.0314 63.1351 23.6299 66.0778 22.7548L69.6792 21.6824L73.2805 22.7548C76.2218 23.6299 79.36 23.0314 81.9598 21.1161L78.8255 17.5993C78.7471 17.5112 78.7069 17.3956 78.7138 17.2778C78.7207 17.1601 78.774 17.0499 78.8621 16.9715C78.9503 16.8931 79.0659 16.8529 79.1837 16.8598C79.3014 16.8667 79.4116 16.92 79.49 17.0081L83.253 21.231L82.8881 21.5241C79.9878 23.8498 76.3938 24.609 73.027 23.6069L69.6792 22.6107L66.3314 23.6074C65.3727 23.8936 64.3775 24.0391 63.3769 24.0393" fill="#EB4992"/>
<path d="M63.3769 24.0388C60.9443 24.0388 58.5321 23.177 56.4698 21.5236L56.1063 21.2314L59.8264 17.0311C59.9046 16.9428 60.0147 16.8891 60.1324 16.882C60.2502 16.8749 60.3659 16.9148 60.4542 16.993C60.5426 17.0712 60.5962 17.1813 60.6033 17.299C60.6105 17.4168 60.5705 17.5325 60.4923 17.6208L57.3972 21.1147C59.9964 23.0314 63.1351 23.6299 66.0778 22.7548L69.6792 21.6824L73.2805 22.7548C76.2218 23.6299 79.36 23.0314 81.9598 21.1161L78.8255 17.5993C78.7471 17.5112 78.7069 17.3956 78.7138 17.2778C78.7207 17.1601 78.774 17.0499 78.8621 16.9715C78.9503 16.8931 79.0659 16.8529 79.1837 16.8598C79.3014 16.8667 79.4116 16.92 79.49 17.0081L83.253 21.231L82.8881 21.5241C79.9878 23.8498 76.3938 24.609 73.027 23.6069L69.6792 22.6107L66.3314 23.6074C65.3727 23.8936 64.3775 24.0391 63.3769 24.0393" fill="#BCBCBC"/>
<path d="M63.3769 24.0388C60.9443 24.0388 58.5321 23.177 56.4698 21.5236L56.1063 21.2314L59.8264 17.0311C59.9046 16.9428 60.0147 16.8891 60.1324 16.882C60.2502 16.8749 60.3659 16.9148 60.4542 16.993C60.5426 17.0712 60.5962 17.1813 60.6033 17.299C60.6105 17.4168 60.5705 17.5325 60.4923 17.6208L57.3972 21.1147C59.9964 23.0314 63.1351 23.6299 66.0778 22.7548L69.6792 21.6824L73.2805 22.7548C76.2218 23.6299 79.36 23.0314 81.9598 21.1161L78.8255 17.5993C78.7471 17.5112 78.7069 17.3956 78.7138 17.2778C78.7207 17.1601 78.774 17.0499 78.8621 16.9715C78.9503 16.8931 79.0659 16.8529 79.1837 16.8598C79.3014 16.8667 79.4116 16.92 79.49 17.0081L83.253 21.231L82.8881 21.5241C79.9878 23.8498 76.3938 24.609 73.027 23.6069L69.6792 22.6107L66.3314 23.6074C65.3727 23.8936 64.3775 24.0391 63.3769 24.0393" stroke="#BCBCBC" stroke-width="0.488585" stroke-linejoin="round"/>
<path fill-rule="evenodd" clip-rule="evenodd" d="M69.6782 22.1696L62.3509 17.9414C61.5381 17.3521 60.8788 16.576 60.4288 15.6786C59.9787 14.7811 59.751 13.7887 59.7648 12.7848L59.8269 8.45695L62.7569 9.41947C62.8133 9.43681 62.8657 9.4653 62.9109 9.50311C62.9562 9.54098 62.9935 9.58744 63.0206 9.63987C63.0477 9.69224 63.0641 9.74955 63.0688 9.80838C63.0735 9.86721 63.0665 9.92637 63.0481 9.98241C63.0296 10.0385 63.0003 10.0903 62.9616 10.1349C62.9229 10.1795 62.8758 10.2159 62.8229 10.242C62.77 10.2682 62.7124 10.2835 62.6535 10.2871C62.5946 10.2908 62.5356 10.2826 62.4799 10.2633L60.6985 9.67891L60.6536 12.7975C60.6418 13.6549 60.8355 14.5027 61.2183 15.27C61.6011 16.0372 62.162 16.7018 62.8541 17.208L69.6811 21.145L76.5897 17.207C77.2851 16.7015 77.8489 16.0363 78.2336 15.2674C78.6182 14.4984 78.8125 13.6484 78.8001 12.7887L78.7561 9.67304L76.726 10.3204C76.6137 10.3562 76.4917 10.346 76.3869 10.2919C76.2821 10.2377 76.2031 10.1442 76.1673 10.0319C76.1315 9.91953 76.1417 9.79758 76.1959 9.69278C76.2499 9.58803 76.3435 9.50902 76.4558 9.47321L79.6282 8.46233L79.6888 12.7765C79.703 13.7829 79.4743 14.7778 79.0219 15.6768C78.5696 16.5759 77.907 17.3525 77.0905 17.9409L77.0509 17.9663L69.6777 22.1691L69.6782 22.1696Z" fill="#BCBCBC" stroke="#BCBCBC" stroke-width="0.488585" stroke-linecap="round" stroke-linejoin="round"/>
<path fill-rule="evenodd" clip-rule="evenodd" d="M63.7116 9.98716L69.6982 0L75.7425 10.036L69.686 13.6125L63.7116 9.98716ZM63.5186 11.5764L69.6982 15.1089L75.742 11.5764L69.6982 20.3123L63.5186 11.5764Z" fill="url(#paint0_linear_98_2992)"/>
<path fill-rule="evenodd" clip-rule="evenodd" d="M57.3439 18.1699C57.2432 18.1698 57.1456 18.1355 57.067 18.0726C56.9883 18.0098 56.9333 17.9222 56.911 17.824C56.6159 16.5268 55.7824 15.1436 54.5013 13.8235L54 13.3085L54.6855 13.0906C56.1977 12.6098 57.5193 12.5444 58.7256 12.8927C58.8388 12.9254 58.9345 13.0017 58.9915 13.1049C59.0484 13.2081 59.0621 13.3296 59.0295 13.4429C58.9969 13.5561 58.9205 13.6518 58.8173 13.7088C58.7142 13.7658 58.5926 13.7794 58.4793 13.7468C57.6145 13.4976 56.6989 13.4956 55.6387 13.7468C56.7527 15.022 57.488 16.3524 57.7782 17.6271C57.7927 17.6923 57.7924 17.7599 57.7773 17.8248C57.7621 17.8899 57.7326 17.9506 57.6909 18.0027C57.6492 18.0548 57.5963 18.0969 57.5361 18.1259C57.476 18.1548 57.4101 18.1698 57.3434 18.1699" fill="#EB4992"/>
<path d="M57.3439 18.1699C57.2432 18.1698 57.1456 18.1355 57.067 18.0726C56.9883 18.0098 56.9333 17.9222 56.911 17.824C56.6159 16.5268 55.7824 15.1436 54.5013 13.8235L54 13.3085L54.6855 13.0906C56.1977 12.6098 57.5193 12.5444 58.7256 12.8927C58.8388 12.9254 58.9345 13.0017 58.9915 13.1049C59.0484 13.2081 59.0621 13.3296 59.0295 13.4429C58.9969 13.5561 58.9205 13.6518 58.8173 13.7088C58.7142 13.7658 58.5926 13.7794 58.4793 13.7468C57.6145 13.4976 56.6989 13.4956 55.6387 13.7468C56.7527 15.022 57.488 16.3524 57.7782 17.6271C57.7927 17.6923 57.7924 17.7599 57.7773 17.8248C57.7621 17.8899 57.7326 17.9506 57.6909 18.0027C57.6492 18.0548 57.5963 18.0969 57.5361 18.1259C57.476 18.1548 57.4101 18.1698 57.3434 18.1699" fill="#BCBCBC"/>
<path d="M57.3439 18.1699C57.2432 18.1698 57.1456 18.1355 57.067 18.0726C56.9883 18.0098 56.9333 17.9222 56.911 17.824C56.6159 16.5268 55.7824 15.1436 54.5013 13.8235L54 13.3085L54.6855 13.0906C56.1977 12.6098 57.5193 12.5444 58.7256 12.8927C58.8388 12.9254 58.9345 13.0017 58.9915 13.1049C59.0484 13.2081 59.0621 13.3296 59.0295 13.4429C58.9969 13.5561 58.9205 13.6518 58.8173 13.7088C58.7142 13.7658 58.5926 13.7794 58.4793 13.7468C57.6145 13.4976 56.6989 13.4956 55.6387 13.7468C56.7527 15.022 57.488 16.3524 57.7782 17.6271C57.7927 17.6923 57.7924 17.7599 57.7773 17.8248C57.7621 17.8899 57.7326 17.9506 57.6909 18.0027C57.6492 18.0548 57.5963 18.0969 57.5361 18.1259C57.476 18.1548 57.4101 18.1698 57.3434 18.1699" stroke="#BCBCBC" stroke-width="0.488585" stroke-linecap="round" stroke-linejoin="round"/>
<path fill-rule="evenodd" clip-rule="evenodd" d="M82.0593 18.1699C81.9926 18.1699 81.9267 18.1548 81.8665 18.1259C81.8063 18.0969 81.7535 18.0548 81.7118 18.0026C81.6701 17.9504 81.6408 17.8895 81.6258 17.8244C81.6109 17.7594 81.6108 17.6917 81.6255 17.6266C81.9162 16.3519 82.6515 15.022 83.765 13.7468C82.7047 13.4956 81.7896 13.4976 80.9243 13.7468C80.8683 13.763 80.8096 13.7681 80.7516 13.7616C80.6936 13.7551 80.6375 13.7372 80.5864 13.709C80.5353 13.6808 80.4903 13.6428 80.454 13.5971C80.4177 13.5514 80.3907 13.499 80.3747 13.4429C80.3584 13.3869 80.3533 13.3282 80.3597 13.2702C80.3661 13.2122 80.3839 13.1561 80.4121 13.105C80.4402 13.0539 80.4781 13.0088 80.5237 12.9724C80.5693 12.936 80.6216 12.9089 80.6776 12.8927C81.8844 12.5444 83.2065 12.6098 84.7182 13.0906L85.4037 13.3085L84.9029 13.8235C83.6213 15.1431 82.7883 16.5263 82.4927 17.824C82.4704 17.9222 82.4154 18.0098 82.3367 18.0726C82.2581 18.1355 82.1605 18.1698 82.0598 18.1699" fill="#EB4992"/>
<path d="M82.0593 18.1699C81.9926 18.1699 81.9267 18.1548 81.8665 18.1259C81.8063 18.0969 81.7535 18.0548 81.7118 18.0026C81.6701 17.9504 81.6408 17.8895 81.6258 17.8244C81.6109 17.7594 81.6108 17.6917 81.6255 17.6266C81.9162 16.3519 82.6515 15.022 83.765 13.7468C82.7047 13.4956 81.7896 13.4976 80.9243 13.7468C80.8683 13.763 80.8096 13.7681 80.7516 13.7616C80.6936 13.7551 80.6375 13.7372 80.5864 13.709C80.5353 13.6808 80.4903 13.6428 80.454 13.5971C80.4177 13.5514 80.3907 13.499 80.3747 13.4429C80.3584 13.3869 80.3533 13.3282 80.3597 13.2702C80.3661 13.2122 80.3839 13.1561 80.4121 13.105C80.4402 13.0539 80.4781 13.0088 80.5237 12.9724C80.5693 12.936 80.6216 12.9089 80.6776 12.8927C81.8844 12.5444 83.2065 12.6098 84.7182 13.0906L85.4037 13.3085L84.9029 13.8235C83.6213 15.1431 82.7883 16.5263 82.4927 17.824C82.4704 17.9222 82.4154 18.0098 82.3367 18.0726C82.2581 18.1355 82.1605 18.1698 82.0598 18.1699" fill="#BCBCBC"/>
<path d="M82.0593 18.1699C81.9926 18.1699 81.9267 18.1548 81.8665 18.1259C81.8063 18.0969 81.7535 18.0548 81.7118 18.0026C81.6701 17.9504 81.6408 17.8895 81.6258 17.8244C81.6109 17.7594 81.6108 17.6917 81.6255 17.6266C81.9162 16.3519 82.6515 15.022 83.765 13.7468C82.7047 13.4956 81.7896 13.4976 80.9243 13.7468C80.8683 13.763 80.8096 13.7681 80.7516 13.7616C80.6936 13.7551 80.6375 13.7372 80.5864 13.709C80.5353 13.6808 80.4903 13.6428 80.454 13.5971C80.4177 13.5514 80.3907 13.499 80.3747 13.4429C80.3584 13.3869 80.3533 13.3282 80.3597 13.2702C80.3661 13.2122 80.3839 13.1561 80.4121 13.105C80.4402 13.0539 80.4781 13.0088 80.5237 12.9724C80.5693 12.936 80.6216 12.9089 80.6776 12.8927C81.8844 12.5444 83.2065 12.6098 84.7182 13.0906L85.4037 13.3085L84.9029 13.8235C83.6213 15.1431 82.7883 16.5263 82.4927 17.824C82.4704 17.9222 82.4154 18.0098 82.3367 18.0726C82.2581 18.1355 82.1605 18.1698 82.0598 18.1699" stroke="#BCBCBC" stroke-width="0.488585"/>
<path fill-rule="evenodd" clip-rule="evenodd" d="M62.6093 8.5195C62.5467 8.51965 62.4848 8.50651 62.4277 8.48105C62.3704 8.45555 62.3193 8.41827 62.2776 8.37161C62.2358 8.32495 62.2044 8.27003 62.1854 8.21037C62.1664 8.15077 62.1602 8.08774 62.1672 8.02554L62.5209 4.86295L64.7366 6.37364C64.8311 6.44121 64.8953 6.54308 64.9156 6.65741C64.936 6.77174 64.9107 6.88944 64.8454 6.98544C64.7801 7.08145 64.6797 7.14805 64.566 7.17101C64.4521 7.19402 64.3338 7.1716 64.2363 7.10847L63.2401 6.42934L63.0505 8.12424C63.0384 8.23285 62.9867 8.33316 62.9054 8.40605C62.824 8.47895 62.7186 8.51936 62.6093 8.5195Z" fill="#EB4992"/>
<path d="M62.6093 8.5195C62.5467 8.51965 62.4848 8.50651 62.4277 8.48105C62.3704 8.45555 62.3193 8.41827 62.2776 8.37161C62.2358 8.32495 62.2044 8.27003 62.1854 8.21037C62.1664 8.15077 62.1602 8.08774 62.1672 8.02554L62.5209 4.86295L64.7366 6.37364C64.8311 6.44121 64.8953 6.54308 64.9156 6.65741C64.936 6.77174 64.9107 6.88944 64.8454 6.98544C64.7801 7.08145 64.6797 7.14805 64.566 7.17101C64.4521 7.19402 64.3338 7.1716 64.2363 7.10847L63.2401 6.42934L63.0505 8.12424C63.0384 8.23285 62.9867 8.33316 62.9054 8.40605C62.824 8.47895 62.7186 8.51936 62.6093 8.5195Z" fill="#BCBCBC" stroke="#BCBCBC" stroke-width="0.488585" stroke-linejoin="round"/>
<path fill-rule="evenodd" clip-rule="evenodd" d="M76.6459 8.51936C76.5379 8.51926 76.4336 8.47973 76.3527 8.4082C76.2717 8.33672 76.2196 8.23813 76.2062 8.13093L75.9883 6.42235L74.9828 7.10832C74.8853 7.17472 74.7655 7.19969 74.6496 7.17775C74.5338 7.15581 74.4314 7.08873 74.365 6.99131C74.2986 6.89388 74.2735 6.77403 74.2955 6.65814C74.3175 6.5423 74.3845 6.43989 74.482 6.37349L76.6874 4.86963L77.0876 8.01904C77.0955 8.08168 77.09 8.1453 77.0714 8.20564C77.0528 8.26598 77.0216 8.32167 76.9798 8.36902C76.938 8.41631 76.8866 8.45423 76.829 8.48012C76.7715 8.50607 76.709 8.51945 76.6459 8.51936Z" fill="#EB4992"/>
<path d="M76.6459 8.51936C76.5379 8.51926 76.4336 8.47973 76.3527 8.4082C76.2717 8.33672 76.2196 8.23813 76.2062 8.13093L75.9883 6.42235L74.9828 7.10832C74.8853 7.17472 74.7655 7.19969 74.6496 7.17775C74.5338 7.15581 74.4314 7.08873 74.365 6.99131C74.2986 6.89388 74.2735 6.77403 74.2955 6.65814C74.3175 6.5423 74.3845 6.43989 74.482 6.37349L76.6874 4.86963L77.0876 8.01904C77.0955 8.08168 77.09 8.1453 77.0714 8.20564C77.0528 8.26598 77.0216 8.32167 76.9798 8.36902C76.938 8.41631 76.8866 8.45423 76.829 8.48012C76.7715 8.50607 76.709 8.51945 76.6459 8.51936Z" fill="#BCBCBC" stroke="#BCBCBC" stroke-width="0.488585" stroke-linecap="round" stroke-linejoin="round"/>
<path fill-rule="evenodd" clip-rule="evenodd" d="M121.441 6.68774V12.1916H114.889V6.68872H92.8698V19.7486H102.93V17.6965H95.5502V14.2442H102.93V12.1921H95.5502V8.74078H106.243V19.7486H108.922V8.74078H112.209V19.7486H114.889V14.2442H121.441V19.7481H124.121V6.68872L121.441 6.68774Z" fill="#BCBCBC"/>
<path fill-rule="evenodd" clip-rule="evenodd" d="M125.892 19.7481H128.015V6.64528H125.892V19.7481Z" fill="#BCBCBC"/>
<path fill-rule="evenodd" clip-rule="evenodd" d="M129.884 10.8758H131.942V11.6957C132.659 10.9853 133.467 10.6301 134.365 10.6301C135.398 10.6301 136.202 10.955 136.779 11.6048C137.277 12.1569 137.526 13.0588 137.526 14.3101V19.748H135.468V14.7933C135.468 13.9187 135.346 13.3148 135.104 12.9806C134.866 12.6406 134.435 12.4705 133.809 12.4705C133.129 12.4705 132.646 12.6953 132.361 13.1448C132.081 13.5879 131.942 14.3623 131.942 15.4675V19.749H129.883V10.8758H129.884Z" fill="#BCBCBC"/>
<path d="M140.483 15.2844C140.483 16.1351 140.712 16.8274 141.167 17.3614C141.634 17.9023 142.223 18.1725 142.934 18.1725C143.693 18.1725 144.306 17.9115 144.774 17.3893C145.242 16.8484 145.476 16.1629 145.476 15.3304C145.476 14.4983 145.241 13.8118 144.774 13.2715C144.306 12.7438 143.699 12.479 142.953 12.479C142.247 12.479 141.658 12.7462 141.185 13.2803C140.717 13.8211 140.483 14.4895 140.483 15.2844ZM145.348 6.64528H147.407V19.7486H145.348V18.8193C144.541 19.6094 143.626 20.0042 142.606 20.0042C141.391 20.0042 140.383 19.5605 139.581 18.6737C138.785 17.7689 138.388 16.6393 138.388 15.2849C138.388 13.9613 138.786 12.8567 139.581 11.9694C140.371 11.0767 141.364 10.6307 142.56 10.6307C143.599 10.6307 144.528 11.0557 145.348 11.9059V6.64479V6.64528Z" fill="#BCBCBC"/>
<path d="M148.874 19.748H150.924V10.8753H148.874V19.748ZM148.565 7.96675C148.565 7.60813 148.695 7.29837 148.956 7.03746C149.078 6.91146 149.224 6.81169 149.385 6.74431C149.547 6.67694 149.72 6.64332 149.895 6.64562C150.265 6.64562 150.581 6.77656 150.842 7.03746C151.103 7.2925 151.234 7.6052 151.234 7.97554C151.234 8.34589 151.103 8.66201 150.842 8.92291C150.721 9.0497 150.576 9.15005 150.414 9.21753C150.253 9.28495 150.079 9.31808 149.904 9.31476C149.727 9.31764 149.553 9.28436 149.39 9.21694C149.227 9.14956 149.079 9.0495 148.956 8.92291C148.695 8.66201 148.565 8.34345 148.565 7.96675Z" fill="#BCBCBC"/>
<path d="M154.077 15.2843C154.077 16.1349 154.304 16.8272 154.76 17.3613C155.227 17.9021 155.817 18.1723 156.527 18.1723C157.286 18.1723 157.9 17.9114 158.367 17.3891C158.835 16.8483 159.069 16.1628 159.069 15.3302C159.069 14.4982 158.835 13.8117 158.367 13.2713C157.9 12.7437 157.293 12.4788 156.546 12.4788C155.841 12.4788 155.252 12.7461 154.778 13.2801C154.311 13.821 154.077 14.4894 154.077 15.2843ZM158.941 10.8758H161V19.7485H158.941V18.8187C158.097 19.6088 157.189 20.0035 156.218 20.0035C154.99 20.0035 153.977 19.5599 153.174 18.6731C152.379 17.7683 151.982 16.6386 151.982 15.2843C151.982 13.9544 152.379 12.8463 153.174 11.9595C153.971 11.0727 154.966 10.6305 156.163 10.6305C157.195 10.6305 158.121 11.0546 158.941 11.9048V10.8758Z" fill="#BCBCBC"/>
<path d="M85.067 154.212C83.6009 154.212 82.6549 153.155 82.6549 151.626V151.074C82.6549 149.482 83.6009 148.489 85.067 148.489C86.5963 148.489 87.3215 149.403 87.3215 151.342C87.3215 153.266 86.5805 154.212 85.067 154.212ZM82.6549 144.879H81.5671V155H82.6549V152.998H82.7338C83.0806 154.259 84.0265 155.173 85.5242 155.173C87.3215 155.173 88.4093 153.818 88.4093 151.342C88.4093 148.867 87.3687 147.496 85.4454 147.496C83.9477 147.496 83.1121 148.394 82.7495 149.64H82.6549V144.879ZM90.1459 157.649C91.5805 157.649 92.4634 156.892 93.2359 155.095L96.4205 147.669H95.2696L94.2922 150.286C93.9138 151.295 93.3462 152.824 92.9048 154.038H92.7156C92.2742 152.84 91.6436 151.264 91.2495 150.255L90.2247 147.669H89.0266L92.2584 154.953C91.6121 156.419 91.0603 156.655 90.1774 156.655C89.8621 156.655 89.5626 156.624 89.2473 156.561L89.0739 157.554C89.3576 157.601 89.6887 157.649 90.1459 157.649ZM101.116 152.856C101.116 154.212 101.778 155.173 103.244 155.173C103.859 155.173 104.269 155.095 104.758 154.937L104.6 153.975C104.159 154.101 103.843 154.164 103.433 154.164C102.55 154.164 102.188 153.691 102.188 152.777V148.599H104.679V147.669H102.188V145.557H101.116V147.669H99.9176V148.599H101.116V152.856ZM109.198 148.394C110.727 148.394 111.42 149.277 111.484 150.806H106.738C106.896 149.198 107.779 148.394 109.198 148.394ZM109.261 155.173C111.105 155.173 112.083 154.291 112.445 152.84L111.484 152.556C111.216 153.487 110.711 154.243 109.261 154.243C107.684 154.243 106.817 153.282 106.722 151.642H112.461C112.493 151.358 112.493 151.043 112.493 150.87C112.493 148.852 111.389 147.496 109.229 147.496C107.069 147.496 105.635 148.93 105.635 151.358C105.635 153.755 106.99 155.173 109.261 155.173ZM116.258 154.259C115.092 154.259 114.697 153.676 114.697 153.045C114.697 152.225 115.281 151.8 116.337 151.8H118.733V152.304C118.733 153.423 117.756 154.259 116.258 154.259ZM118.781 155H119.805V150.302C119.805 148.489 118.938 147.512 116.952 147.512C115.297 147.512 114.256 148.347 113.925 149.782L114.965 150.05C115.218 148.978 115.833 148.426 116.936 148.426C118.26 148.426 118.733 149.104 118.733 150.318V150.996H116.211C114.477 150.996 113.641 151.926 113.641 153.14C113.641 154.543 114.524 155.158 115.959 155.158C117.283 155.158 118.276 154.496 118.655 153.25H118.781V155ZM122.915 150.775C122.915 149.403 123.892 148.489 125.358 148.489C126.635 148.489 127.124 149.34 127.124 150.444V155H128.212V150.775C128.212 149.403 129.158 148.489 130.656 148.489C131.933 148.489 132.421 149.34 132.421 150.444V155H133.509V150.207C133.509 148.599 132.721 147.496 131.018 147.496C129.473 147.496 128.59 148.363 128.259 149.687H128.102C127.96 148.363 127.219 147.496 125.753 147.496C124.397 147.496 123.435 148.284 123.025 149.561H122.899V147.669H121.827V155H122.915V150.775Z" fill="#CBD5E0"/>
<path d="M74.5651 168.243C74.5651 167.487 74.9119 167.156 75.5268 167.156C75.7948 167.156 76.047 167.187 76.315 167.235L76.3939 165.753C76.0785 165.674 75.7317 165.611 75.1011 165.611C73.2566 165.611 72.421 166.683 72.421 168.18V168.527H71.3332V170.23H72.421V176H74.5651V170.23H76.3308V168.527H74.5651V168.243ZM80.7419 176.221C83.1224 176.221 84.5728 174.723 84.5728 172.264C84.5728 169.773 83.0751 168.322 80.7419 168.322C78.3613 168.322 76.8794 169.773 76.8794 172.264C76.8794 174.723 78.314 176.221 80.7419 176.221ZM80.7261 170.12C81.9085 170.12 82.4287 170.892 82.4287 172.248C82.4287 173.604 81.9243 174.392 80.7261 174.392C79.5122 174.392 79.0234 173.604 79.0234 172.248C79.0234 170.892 79.5437 170.12 80.7261 170.12ZM90.5177 176H92.6145V168.527H90.4546V172.689C90.4546 173.635 89.8871 174.282 88.9727 174.282C88.1844 174.282 87.8376 173.761 87.8376 172.989V168.527H85.6935V173.588C85.6935 175.212 86.4187 176.221 87.8376 176.221C89.02 176.221 89.9344 175.464 90.36 174.014H90.5177V176ZM96.2752 176V172.674C96.2752 171.349 96.7009 170.908 98.1986 170.908H98.64V168.448H98.4193C97.4418 168.448 96.8112 168.874 96.3383 170.955H96.1648V168.527H94.1311V176H96.2752ZM102.133 164.917C102.039 165.285 101.918 165.684 101.771 166.115C101.624 166.536 101.466 166.961 101.298 167.392C101.13 167.813 100.956 168.217 100.778 168.606H99.0907C99.1642 168.291 99.2378 167.965 99.3114 167.629C99.3849 167.292 99.4533 166.956 99.5163 166.62C99.5899 166.273 99.6529 165.942 99.7055 165.626C99.7686 165.311 99.8211 165.017 99.8631 164.744H102.023L102.133 164.917ZM107.49 176.221C110.565 176.221 112.267 174.297 112.267 171.239C112.267 168.196 110.486 166.32 107.49 166.32C104.542 166.32 102.713 168.196 102.713 171.239C102.713 174.297 104.432 176.221 107.49 176.221ZM107.49 174.266C105.725 174.266 104.984 173.099 104.984 171.239C104.984 169.473 105.725 168.307 107.49 168.307C109.272 168.307 110.013 169.473 110.013 171.239C110.013 173.099 109.272 174.266 107.49 174.266ZM115.913 164.917C115.818 165.285 115.697 165.684 115.55 166.115C115.403 166.536 115.245 166.961 115.077 167.392C114.909 167.813 114.735 168.217 114.557 168.606H112.87C112.943 168.291 113.017 167.965 113.091 167.629C113.164 167.292 113.232 166.956 113.296 166.62C113.369 166.273 113.432 165.942 113.485 165.626C113.548 165.311 113.6 165.017 113.642 164.744H115.802L115.913 164.917ZM119.567 168.243C119.567 167.487 119.914 167.156 120.529 167.156C120.797 167.156 121.049 167.187 121.317 167.235L121.396 165.753C121.08 165.674 120.734 165.611 120.103 165.611C118.258 165.611 117.423 166.683 117.423 168.18V168.527H116.335V170.23H117.423V176H119.567V170.23H121.333V168.527H119.567V168.243ZM125.744 176.221C128.124 176.221 129.575 174.723 129.575 172.264C129.575 169.773 128.077 168.322 125.744 168.322C123.363 168.322 121.881 169.773 121.881 172.264C121.881 174.723 123.316 176.221 125.744 176.221ZM125.728 170.12C126.91 170.12 127.431 170.892 127.431 172.248C127.431 173.604 126.926 174.392 125.728 174.392C124.514 174.392 124.025 173.604 124.025 172.248C124.025 170.892 124.546 170.12 125.728 170.12ZM135.519 176H137.616V168.527H135.456V172.689C135.456 173.635 134.889 174.282 133.974 174.282C133.186 174.282 132.839 173.761 132.839 172.989V168.527H130.695V173.588C130.695 175.212 131.421 176.221 132.839 176.221C134.022 176.221 134.936 175.464 135.362 174.014H135.519V176ZM141.277 176V172.674C141.277 171.349 141.703 170.908 143.2 170.908H143.642V168.448H143.421C142.444 168.448 141.813 168.874 141.34 170.955H141.167V168.527H139.133V176H141.277Z" fill="#8341C8"/>
<defs>
<filter id="filter0_d_98_2992" x="0.921062" y="46.2321" width="213.158" height="76.8026" filterUnits="userSpaceOnUse" color-interpolation-filters="sRGB">
<feFlood flood-opacity="0" result="BackgroundImageFix"/>
<feColorMatrix in="SourceAlpha" type="matrix" values="0 0 0 0 0 0 0 0 0 0 0 0 0 0 0 0 0 0 127 0" result="hardAlpha"/>
<feOffset/>
<feGaussianBlur stdDeviation="4.56266"/>
<feComposite in2="hardAlpha" operator="out"/>
<feColorMatrix type="matrix" values="0 0 0 0 0.0156863 0 0 0 0 0.0196078 0 0 0 0 0.027451 0 0 0 1 0"/>
<feBlend mode="normal" in2="BackgroundImageFix" result="effect1_dropShadow_98_2992"/>
<feBlend mode="normal" in="SourceGraphic" in2="effect1_dropShadow_98_2992" result="shape"/>
</filter>
<linearGradient id="paint0_linear_98_2992" x1="69.6305" y1="4.15297" x2="69.6305" y2="23.2078" gradientUnits="userSpaceOnUse">
<stop stop-color="#7635BB"/>
<stop offset="1" stop-color="#EB4992"/>
</linearGradient>
</defs>
</svg>
